<svg xmlns="http://www.w3.org/2000/svg" viewBox="0 0 576.386 576.387">
<g>
	<path d="M291.669,287.896c-0.086,2.441-0.406,4.798-1.094,7.043v-18.4C291.382,280.205,291.797,283.981,291.669,287.896z
		 M293.475,327.39c0.602-1.475-0.311-2.847-2.156-3.454c-0.193-0.061-0.42-0.131-0.744-0.242v4.947
		C291.697,329.019,292.864,328.883,293.475,327.39z M554.16,270.948c5.647,6.639,11.28,13.252,17.03,20.02
		c-9.059,3.048-17.399,2.474-24.815-2.353c-2.595,5.638-5.581,11.906-8.914,18.552c5.54,6.511,11.065,13.007,16.713,19.644
		c-9.334,3.137-17.884,2.395-25.478-2.847c-3.528,6.496-7.318,13.143-11.346,19.774c5.676,6.669,11.327,13.315,17.109,20.11
		c-10.08,3.389-19.242,2.222-27.27-4.214c-4.854,7.178-9.964,14.132-15.289,20.651c6.146,7.233,12.274,14.431,18.537,21.795
		c-11.705,3.939-22.196,1.765-31.082-7.757c-5.115,5.181-10.39,9.82-15.784,13.764c2.333,7.906,4.671,15.816,7.057,23.872
		c-10.706-0.999-18.673-5.871-23.382-15.215c-47.152,15.047-108.174-38.933-108.174-38.933s-26.883-26.173-44.942-30.196h-3.097
		c-0.149,0.028-0.306,0.094-0.459,0.122v-16.802c1.428,0.345,2.945,0.205,4.34-0.705c1.055-0.695,1.654-0.467,2.663,0.028
		c1.092,0.518,2.618,0.966,3.654,0.598c2.287-0.822,4.849-1.731,6.478-3.407c3.5-3.604,6.506-7.705,9.693-11.612
		c1.536-1.881,2.917-3.887,4.556-5.651c1.19-1.283,2.521-0.98,2.852,0.69c0.326,1.657,0.509,3.608-0.056,5.125
		c-1.694,4.602-3.771,9.045-5.75,13.665c-2.24-2.427-2.922-2.558-4.812-1.097c3.552,2.054,3.795,2.791,2.315,6.921
		c-0.065,0.187-0.163,0.374-0.22,0.561c-0.826,3.612-1.871,7.187-2.432,10.837c-0.588,3.785,0.112,7.486,2.021,10.865
		c-1.97-8.182-0.023-15.742,3.369-23.027c2.59-5.555,5.498-10.968,8.158-16.484c3.911-8.116,7.038-16.429,5.334-25.688
		c-0.719-3.939-2.259-7.533-6.095-9.507c-1.508-0.779-3.038-0.663-4.121,0.889c-0.971,1.358-0.803,2.882,0.392,4.259
		c1.765-2.987,3.338-3.106,5.597-0.35c0.635,0.775,1.357,1.657,1.525,2.581c0.519,2.749,1.111,5.555,1.064,8.322
		c-0.074,4.074-1.186,7.999-2.814,11.91c-0.485-1.718-0.7-3.271-1.339-4.625c-1.298-2.74-4.103-3.249-6.329-1.223
		c-0.84,0.76-1.61,1.666-2.193,2.622c-1.881,3.123-3.565,6.356-5.503,9.433c-1.899,3.015-3.812,6.062-6.137,8.736
		c-1.246,1.429-3.295,2.227-5.105,3.034c-1.13,0.499-2.572,0.069-2.688-1.293c-0.084-0.989,0.663-2.114,1.246-3.057
		c0.233-0.369,1.036-0.397,1.792-0.658c-1.493-1.503-3.001-1.587-4.732-1.055c-0.677,0.215-1.528,0.224-2.207,0.009
		c-1.652-0.504-3.102-0.447-4.511,0.91v-20.119c0.364-0.463,0.712-0.943,1.027-1.484c3.465-5.937,4.889-12.405,3.967-19.247
		c-0.758-5.654-2.585-10.94-4.994-16.02v-5.199c5.897,2.422,9.645,1.916,17.303-1.559c-0.294,0.614-0.495,1.081-0.742,1.521
		c-3.435,6.303-6.314,12.823-7.485,19.975c-1.214,7.418,0.135,14.363,3.967,20.799c1.572,2.642,3.943,4.392,6.939,5.236
		c4.504,1.274,8.504-1.466,8.275-5.839c-5.354,3.734-9.928,2.95-12.578-2.566c-1.456-3.024-2.366-6.501-2.679-9.848
		c-0.896-9.549,1.718-18.444,6.044-26.873c3.374-6.602,7.065-13.049,10.188-19.776c2.492-5.372,4.509-10.963,2.94-17.196
		c-1.055-4.2-3.804-6.44-8.12-6.102c-5.909,0.455-10.763,6.91-9.404,13.64c0.494,2.403,3.738,4.319,6.049,3.451
		c0.877-0.327,1.89-1.706,1.885-2.611c-0.005-0.926-1.176-1.848-1.834-2.772c-0.808,0.679-1.629,1.339-2.413,2.042
		c-0.158,0.142-0.205,0.441-0.299,0.665c-0.191,0.042-0.382,0.086-0.569,0.128c-0.294-0.842-0.877-1.696-0.83-2.532
		c0.177-3.375,3.854-6.448,7.206-6.2c3.332,0.245,5.693,3.087,5.386,6.835c-0.168,1.92-0.7,3.848-1.288,5.701
		c-2.282,7.309-5.647,14.013-11.411,19.261c-5.676,5.18-10.951,5.92-16.529,2.112v-39.456c0.149,0.005,0.306,0.033,0.46,0.038h2.163
		c-0.577-0.721-1.204-1.386-1.725-2.189c-6.599-10.055-3.001-24.255,8.471-32.187c-1.041,2.81-2.138,5.204-2.81,7.708
		c-1.996,7.47-1.102,14.447,4.405,20.269c1.895,2.002,4.121,3.37,6.469,4.238c5.792-1.505,11.593-2.982,17.408-4.415
		c5.269-5.869,7.089-12.975,6.076-20.74c-0.205-1.65-0.709-3.734-1.853-4.679c-2.502-2.065-5.446-4.714-8.316-4.856
		c-2.193-0.1-4.564,3.265-7.379,5.505c-2.413-1.83-4.042-5.057-2.385-9.103c2.436-5.96,7.593-6.009,13.385-4.81
		c-1.824-13.667,3.5-23.384,14.548-29.811c1.465,9.908,2.889,19.595,4.326,29.319c11.564-0.201,17.674,3.232,19.998,11.355
		c0.383,1.33,0.5,2.749,0.49,4.187c2.595-5.778,7.594-10.823,14.468-13.633c-1.624,2.518-3.216,4.621-4.405,6.924
		c-3.268,6.293-4.019,12.708-0.943,19.025c10.978-2.341,22.02-4.282,33.188-5.396c0.732-2.161,1.231-4.45,1.441-6.872
		c0.149-1.654,0.107-3.799-0.803-4.971c-2.002-2.55-4.298-5.773-7.075-6.527c-2.119-0.574-5.157,2.203-8.392,3.79
		c-1.96-2.305-2.855-5.808-0.368-9.406c3.663-5.295,8.704-4.233,14.108-1.815c1.152-13.745,8.452-22.08,20.619-25.984
		c-0.7,9.987-1.396,19.755-2.086,29.563c11.336,2.289,16.568,6.958,17.081,15.399c0.065,0.955,0,1.925-0.135,2.896
		c2.076-1.664,4.387-3.141,7.042-4.226c-1.624,2.521-3.216,4.623-4.405,6.926c-0.63,1.218-1.134,2.441-1.568,3.664
		c10.515,3.127,21.24,8.064,32.445,13.25c1.555-3.059,2.492-6.461,2.81-10.155c0.149-1.655,0.107-3.799-0.803-4.971
		c-2.002-2.553-4.298-5.773-7.075-6.529c-2.119-0.574-5.157,2.203-8.396,3.79c-1.956-2.303-2.852-5.806-0.364-9.404
		c3.663-5.297,8.704-4.235,14.104-1.815c1.157-13.747,8.457-22.08,20.624-25.986c-0.705,9.99-1.396,19.758-2.086,29.563
		c11.331,2.289,16.568,6.958,17.081,15.399c0.21,3.347-0.91,6.873-2.833,9.941c1.928-1.454,4.019-2.768,6.408-3.743
		c-1.624,2.52-3.216,4.623-4.406,6.926c-1.819,3.507-2.86,7.059-2.897,10.599c10.473,3.662,21.506,6.415,33.225,7.342
		c1.89-3.312,3.006-7.068,3.36-11.183c0.149-1.654,0.107-3.799-0.803-4.97c-2.002-2.553-4.299-5.773-7.075-6.529
		c-2.119-0.574-5.157,2.203-8.392,3.79c-1.96-2.303-2.856-5.806-0.369-9.404c3.664-5.295,8.705-4.235,14.109-1.815
		c1.152-13.745,8.452-22.08,20.619-25.984c-0.7,9.988-1.396,19.756-2.086,29.563c11.336,2.287,16.567,6.958,17.081,15.397
		c0.354,5.687-3.053,11.905-7.925,15.441c-10.268,23.954-10.291,24.005-10.291,24.005S556.736,264.815,554.16,270.948z
		 M479.845,214.362c3.197,1.472,6.437,2.931,9.722,4.368c-1.344-0.821-2.548-1.97-3.579-3.444c4.331-1.909,9.507-3.078,13.151-6.09
		c4.41-3.655,3.229-10.312-1.246-13.414c-4.224-2.931-8.998-1.825-11.947,3.561c-2.357,4.31-3.837,9.117-5.582,13.75
		C480.205,213.527,480.018,213.938,479.845,214.362z M498.365,219.463c-2.343,0.793-4.509,0.835-6.464,0.28
		c2.366,1.015,4.77,1.993,7.191,2.945c0.672-1.706,1.526-3.355,2.604-4.912C500.628,218.46,499.532,219.066,498.365,219.463z
		 M412.924,195.687c2.166-0.149,4.322-0.306,6.496-0.382c3.716-0.119,7.431,0.159,11.154,0.721c3.473-3.75,2.236-9.745-1.95-12.646
		c-4.229-2.929-9.003-1.825-11.948,3.561C415.155,189.708,414.012,192.686,412.924,195.687z M335.063,210.593
		c3.683-0.889,7.355-1.788,11.038-2.663c5.698-1.354,11.397-2.721,17.104-4.039c-0.639-2.131-0.942-4.296-0.863-6.471
		c-1.498,3.108-3.71,5.85-6.492,7.532c-4.625,2.796-9.208,2.065-12.983-1.419c3.822-2.795,8.625-5.052,11.528-8.778
		c3.519-4.518,0.928-10.77-4.099-12.832c-4.755-1.951-9.18,0.151-10.901,6.048c-1.373,4.718-1.783,9.731-2.488,14.629
		C336.497,205.387,335.889,208.05,335.063,210.593z M344.682,315.819c-4.756-2.813-8.476-0.667-12.27,2.04
		c1.839-3.967,3.678-7.57,5.186-11.313c3.542-8.76,4.704-17.697,1.143-26.782c-1.357-3.454-3.243-6.536-6.604-8.438
		c-2.777-1.563-5.619-1.804-8.484-0.217c-2.021,1.115-2.824,2.991-2.324,4.469c1.853-0.612,3.663-1.601,5.53-1.734
		c3.066-0.233,5.143,1.701,6.65,4.215c3.397,5.668,3.683,11.91,3.038,18.22c-0.812,7.972-3.896,15.21-7.598,22.243
		c-3.473,6.628-6.889,13.283-9.96,20.088c-2.138,4.736-3.001,9.801-1.27,14.981c1.027,3.065,2.88,4.518,5.783,4.849
		c7.85,0.896,12.26-6.847,11.621-12.597c-0.337-3.048-3.468-5.231-6.296-4.48c-1.503,0.401-2.222,1.513-1.844,2.885
		c0.262,0.947,1.087,2.222,1.895,2.437c1.27,0.326,2.217-0.673,2.376-2.119c0.009-0.183,0.182-0.336,0.299-0.504
		c1.899,0.91,1.563,2.361,1.12,3.696c-1.153,3.556-4.532,5.549-7.864,4.751c-3.286-0.794-5.125-3.883-4.392-7.767
		c0.387-2.044,0.956-4.079,1.693-6.029C326.224,327.912,331.536,318.228,344.682,315.819z M338.872,246.808
		c-2.203,0.583-4.63,1.601-6.16,3.192c-3.664,3.834-6.861,8.102-10.23,12.221c-1.404,1.72-2.66,3.575-4.168,5.194
		c-1.414,1.496-2.795,1.099-3.117-0.94c-0.266-1.619-0.401-3.498,0.163-4.975c1.755-4.555,3.869-8.97,5.913-13.607
		c1.736,2.462,2.894,2.695,4.686,1.19c-3.574-1.792-3.7-2.093-2.553-6.079c0.84-2.91,1.834-5.801,2.428-8.76
		c0.891-4.443,0.947-8.884-1.195-13.63c0,0.966-0.056,1.426,0.01,1.86c0.648,4.282,0.504,8.597-0.971,12.596
		c-2.11,5.736-4.551,11.381-7.225,16.872c-3.216,6.613-6.796,13.047-8.514,20.278c-1.315,5.601-2.007,11.243,0.635,16.624
		c0.971,1.988,2.586,3.72,4.178,5.302c1.297,1.293,3.001,1.461,4.508,0c1.195-1.157,1.223-2.8-0.042-4.858
		c-0.163,0.364-0.275,0.653-0.415,0.915c-1.092,2.128-2.642,2.455-4.247,0.682c-1.031-1.125-1.937-2.446-2.548-3.841
		c-1.694-3.869-1.298-7.932-0.523-11.927c0.495-2.567,1.335-5.071,2.156-8.107c0.668,2.056,0.947,3.542,1.605,4.838
		c1.298,2.536,3.902,3.01,6.091,1.228c0.672-0.549,1.302-1.209,1.76-1.939c1.992-3.283,3.775-6.681,5.885-9.894
		c2.245-3.417,4.602-6.786,7.234-9.897c0.994-1.176,2.837-1.806,4.41-2.217c0.7-0.187,2.109,0.549,2.487,1.256
		c0.588,1.12,0.121,2.389-1.162,3.059c-0.551,0.287-1.167,0.429-1.886,0.698c1.372,1.305,2.932,1.902,4.359,1.066
		c1.083-0.637,2.166-1.911,2.469-3.106C345.695,248.964,342.316,245.9,338.872,246.808z M477.788,280.28
		c0,0-37.416-19.77-71.346-8.232c-33.93,11.537-51.539,50.031-51.539,50.031s37.421,19.77,71.36,8.232
		C460.197,318.773,477.788,280.28,477.788,280.28z M489.666,326.895c-0.528,9.843-8.434,17.861-19.037,18.869
		c-3.543,0.331-7.179-0.312-10.772-0.42c-3.738-0.098-7.519-0.434-11.224-0.052c-4.336,0.458-8.061,3.352-9.647,6.581
		c5.256-4.905,8.662-6.114,15.846-5.433c2.748,0.266,5.465,0.887,8.209,1.102c2.964,0.238,5.997,0.564,8.928,0.233
		c12.19-1.372,21.212-11.463,20.671-23.009c-0.336-7.3-3.963-12.667-10.436-15.905c-5.881-2.94-11.733-2.688-17.189,1.209
		c-7.817,5.581-7.976,17.244-0.341,22.378c6.819,4.593,15.742,0.757,16.415-7.047c0.415-4.845-3.52-8.998-8.233-8.686
		c-3.313,0.22-5.96,2.973-5.876,6.212c0.052,1.979,0.888,3.565,2.749,4.434c1.834,0.858,3.543,0.737,5.167-0.942
		c-1.261,0.237-2.306,0.648-3.313,0.578c-2.049-0.145-3.412-1.876-3.375-3.957c0.042-2.25,1.82-4.284,4.056-4.648
		c4.145-0.663,7.715,3.43,6.608,7.658c-0.783,2.969-2.608,5.083-5.684,5.713c-3.738,0.77-6.875-0.598-9.186-3.491
		c-4.392-5.502-1.47-14.37,5.503-17.067C479.291,307.414,490.253,315.945,489.666,326.895z M451.474,349.623
		c-12.013,1.979-20.241,13.525-18.846,26.51c0.294,2.744,0.742,5.465,1.19,8.19c1.092,6.646,0.598,12.876-4.513,18.02
		c4.648-3.342,6.566-8.037,6.365-13.544c-0.145-4.135-0.798-8.247-1.06-12.377c-0.551-8.635,2.166-15.896,9.465-20.96
		c9.54-6.632,22.048-2.534,25.235,8.163c2.558,8.597-3.641,16.848-12.162,16.199c-5.446-0.42-9.563-5.727-8.527-10.981
		c0.635-3.249,3.617-5.806,6.987-6.012c2.786-0.168,5.287,1.582,6.113,4.275c0.714,2.353-0.07,4.63-2.025,5.843
		c-1.76,1.088-4,0.901-5.288-0.504c-1.698-1.857-1.357-3.733,0.485-5.945c-2.884,2.24-3.02,5.138-0.728,7.103
		c1.68,1.452,3.617,1.652,5.591,0.779c2.17-0.956,3.547-2.637,3.804-5.073c0.626-5.861-5.339-10.127-11.07-7.873
		c-3.64,1.433-5.937,4.065-6.361,8.027c-0.48,4.583,1.284,8.326,4.976,10.978c7.906,5.651,19.816,0.363,21.809-9.601
		C475.37,358.468,464.314,347.514,451.474,349.623z M496.376,357.1c-0.378-3.92-2.366-6.785-6.067-8.241
		c-3.893-1.531-7.594-0.821-10.795,1.782c-4.14,3.37-5.176,7.893-4.551,13.04c0.402,3.285,0.486,6.608,0.677,9.409
		c1.004-1.55,0.821-3.968,0.673-6.39c-0.149-2.366-0.57-4.765-0.336-7.099c0.606-5.983,5.46-10.254,10.958-9.903
		c3.188,0.2,5.512,1.82,6.889,4.653c1.208,2.501,1.288,5.035-0.43,7.406c-1.54,2.123-4.695,3.132-6.968,2.23
		c-2.007-0.793-3.374-3.005-3.164-5.124c0.205-2.044,2.319-3.78,4.354-3.57c1.676,0.177,2.964,1.713,2.801,3.337
		c-0.178,1.783-1.512,2.511-4.074,2.217c0.019,0.201,0.042,0.401,0.056,0.606c1.144-0.135,2.628,0.117,3.36-0.499
		c0.826-0.7,1.428-2.227,1.349-3.332c-0.173-2.604-2.907-4.014-5.535-3.15c-2.398,0.784-3.799,2.968-3.561,5.53
		c0.266,2.922,2.534,5.339,5.414,5.74C492.386,366.443,496.867,362.149,496.376,357.1z M510.625,297.763
		c-8.877,0.616-15.826,8.232-15.906,17.749c-0.023,2.964,0.547,5.945,0.976,8.904c0.71,4.878,0.458,9.498-3.08,13.381
		c2.749-2.081,4.219-4.854,4.294-8.121c0.088-3.201-0.205-6.422-0.504-9.623c-0.401-4.205-0.149-8.261,1.945-12.051
		c4.191-7.588,13.287-10.313,19.752-5.918c6.132,4.183,6.846,13.008,1.325,17.082c-2.726,2.017-5.764,2.604-8.854,0.892
		c-2.642-1.471-3.883-3.869-3.691-6.894c0.182-2.852,2.897-5.218,5.796-5.152c2.418,0.051,4.667,2.025,4.346,4.368
		c-0.164,1.284-1.219,2.819-2.32,3.481c-0.761,0.453-2.6-0.046-3.416-0.737c-1.246-1.045-1.055-2.608,0.136-3.883
		c-1.671,1.363-1.909,2.931-0.737,4.499c1.194,1.605,3.762,1.886,5.609,0.606c1.811-1.255,2.516-3.505,1.807-5.722
		c-0.822-2.548-3.286-4.252-5.993-4.135c-5.349,0.224-8.728,5.899-6.398,10.926c1.681,3.631,4.499,5.811,8.653,5.727
		c4.83-0.103,8.405-2.418,10.337-6.805C528.664,307.321,520.827,297.054,510.625,297.763z M532.177,259.969
		c-0.069-0.534,0.015-1.018-0.187-1.447c-4.359-9.54-11.64-17.98-25.594-23.833c-18.006-7.556-40.016-7.46-57.872,0.301
		c-8.093,3.517-15.621,7.53-23.993,10.781c-16.083,6.226-33.197,6.23-50.535,1.988c18.603,1.725,32.436-2.212,40.184-11.852
		c-1.797,0.674-3.123,1.176-4.457,1.673c-20.629,7.698-44.771,5.008-60.654-1.605c-2.566-1.076-3.878-3.204-5.979-5.01
		c0.08,0.789,0.062,1.586,0.238,2.366c1.956,8.597,9.754,14.953,21.805,19.45c21.982,8.212,43.47,7.036,64.364-1.601
		c5.357-2.208,10.729-4.415,16.185-6.527c20.321-7.906,40.618-6.515,60.71,0.282c9.544,3.234,16.718,8.032,23.093,13.271
		c0.662,0.539,1.325,1.085,2.007,1.619C531.534,259.866,531.678,259.871,532.177,259.969z M558.393,232.725
		c2.422-0.942,4.77-2.011,6.688-3.598c4.41-3.657,3.229-10.314-1.241-13.416c-4.229-2.929-9.003-1.825-11.948,3.561
		c-2.361,4.31-3.841,9.117-5.582,13.749c-0.023,0.056-0.051,0.101-0.069,0.156C550.211,233.254,554.257,233.126,558.393,232.725z
		 M285.795,294.935v-18.4c-0.808,3.67-1.223,7.446-1.094,11.362C284.783,290.333,285.103,292.694,285.795,294.935z M282.895,327.39
		c0.611,1.493,1.778,1.629,2.9,1.255v-4.942c-0.324,0.103-0.551,0.178-0.744,0.243C283.205,324.543,282.293,325.924,282.895,327.39z
		 M284.902,217.312c-0.521,0.803-1.146,1.468-1.725,2.189h2.163c0.149-0.004,0.308-0.033,0.46-0.037v39.456
		c-5.577,3.808-10.854,3.068-16.531-2.112c-5.764-5.252-9.128-11.952-11.408-19.261c-0.581-1.857-1.118-3.78-1.291-5.701
		c-0.306-3.748,2.056-6.59,5.388-6.835c3.349-0.247,7.028,2.826,7.206,6.2c0.046,0.836-0.535,1.692-0.831,2.532
		c-0.187-0.047-0.378-0.091-0.569-0.128c-0.101-0.224-0.138-0.516-0.301-0.665c-0.784-0.698-1.605-1.36-2.413-2.04
		c-0.656,0.922-1.827,1.844-1.832,2.77c-0.004,0.901,1.008,2.285,1.883,2.611c2.308,0.875,5.554-1.048,6.051-3.452
		c1.358-6.725-3.493-13.185-9.406-13.64c-4.315-0.333-7.068,1.902-8.119,6.103c-1.568,6.233,0.448,11.824,2.938,17.196
		c3.118,6.725,6.816,13.175,10.191,19.777c4.319,8.429,6.933,17.324,6.043,26.873c-0.31,3.342-1.223,6.823-2.679,9.848
		c-2.653,5.517-7.227,6.3-12.58,2.566c-0.229,4.373,3.771,7.108,8.277,5.834c2.996-0.84,5.367-2.585,6.94-5.231
		c3.834-6.437,5.181-13.381,3.967-20.799c-1.171-7.152-4.058-13.668-7.488-19.976c-0.245-0.445-0.451-0.907-0.742-1.519
		c7.666,3.477,11.409,3.981,17.306,1.557v5.199c-2.408,5.08-4.233,10.368-4.994,16.02c-0.922,6.846,0.502,13.311,3.967,19.248
		c0.31,0.536,0.663,1.021,1.027,1.483v20.12c-1.41-1.362-2.863-1.419-4.511-0.905c-0.679,0.21-1.531,0.2-2.208-0.01
		c-1.731-0.536-3.246-0.457-4.732,1.051c0.756,0.261,1.559,0.284,1.792,0.658c0.583,0.938,1.323,2.062,1.249,3.052
		c-0.117,1.362-1.559,1.802-2.69,1.298c-1.813-0.808-3.867-1.605-5.106-3.034c-2.327-2.679-4.238-5.722-6.14-8.736
		c-1.937-3.081-3.624-6.301-5.502-9.428c-0.583-0.962-1.351-1.867-2.193-2.632c-2.227-2.017-5.036-1.513-6.326,1.223
		c-0.642,1.354-0.861,2.907-1.34,4.629c-1.629-3.91-2.742-7.84-2.814-11.91c-0.051-2.768,0.539-5.572,1.062-8.321
		c0.17-0.919,0.898-1.806,1.529-2.581c2.256-2.756,3.834-2.637,5.596,0.35c1.195-1.377,1.363-2.896,0.392-4.259
		c-1.09-1.547-2.614-1.669-4.124-0.889c-3.839,1.974-5.376,5.568-6.093,9.506c-1.696,9.255,1.423,17.572,5.332,25.688
		c2.663,5.521,5.568,10.931,8.158,16.489c3.393,7.28,5.339,14.841,3.37,23.027c1.906-3.388,2.609-7.085,2.021-10.869
		c-0.558-3.655-1.605-7.229-2.432-10.833c-0.054-0.195-0.154-0.373-0.22-0.569c-1.477-4.126-1.234-4.867,2.317-6.916
		c-1.893-1.456-2.571-1.326-4.812,1.101c-1.979-4.629-4.063-9.067-5.75-13.665c-0.565-1.521-0.383-3.477-0.059-5.129
		c0.332-1.676,1.664-1.97,2.854-0.695c1.638,1.773,3.02,3.78,4.555,5.656c3.188,3.902,6.193,8.009,9.691,11.612
		c1.633,1.671,4.191,2.585,6.48,3.406c1.036,0.369,2.562-0.079,3.652-0.597c1.008-0.495,1.61-0.719,2.667-0.028
		c1.396,0.915,2.91,1.055,4.338,0.709v16.797c-0.147-0.032-0.306-0.098-0.459-0.126h-3.097
		c-18.06,4.032-44.942,30.201-44.942,30.201s-61.024,53.983-108.173,38.928c-4.705,9.344-12.671,14.221-23.384,15.22
		c2.385-8.061,4.721-15.967,7.059-23.872c-5.398-3.939-10.665-8.583-15.787-13.764c-8.884,9.521-19.375,11.696-31.083,7.757
		c6.265-7.364,12.391-14.562,18.537-21.791c-5.322-6.524-10.438-13.479-15.289-20.656c-8.027,6.437-17.189,7.603-27.268,4.215
		c5.783-6.796,11.439-13.446,17.107-20.11c-4.028-6.637-7.817-13.273-11.346-19.771c-7.593,5.237-16.144,5.975-25.476,2.843
		c5.647-6.642,11.173-13.133,16.711-19.644c-3.33-6.646-6.317-12.919-8.912-18.552c-7.423,4.83-15.756,5.399-24.817,2.353
		c5.752-6.768,11.388-13.386,17.033-20.02c-2.576-6.128-3.976-9.773-3.976-9.773s-0.023-0.058-10.291-24.005
		c-4.879-3.538-8.282-9.754-7.927-15.443c0.516-8.438,5.75-13.103,17.084-15.396c-0.693-9.808-1.379-19.576-2.088-29.564
		c12.174,3.899,19.466,12.24,20.624,25.984c5.4-2.417,10.445-3.484,14.106,1.815c2.485,3.599,1.591,7.097-0.367,9.407
		c-3.236-1.587-6.274-4.364-8.394-3.792c-2.777,0.756-5.08,3.976-7.078,6.529c-0.908,1.171-0.95,3.316-0.803,4.97
		c0.359,4.114,1.477,7.867,3.36,11.183c11.724-0.927,22.752-3.685,33.229-7.339c-0.044-3.542-1.085-7.089-2.903-10.602
		c-1.19-2.303-2.779-4.406-4.406-6.924c2.39,0.974,4.483,2.29,6.41,3.741c-1.918-3.074-3.045-6.595-2.835-9.941
		c0.516-8.438,5.75-13.103,17.086-15.396c-0.693-9.808-1.381-19.576-2.088-29.563c12.172,3.899,19.464,12.239,20.622,25.984
		c5.4-2.42,10.447-3.484,14.108,1.815c2.485,3.598,1.591,7.096-0.369,9.404c-3.236-1.587-6.275-4.361-8.392-3.79
		c-2.777,0.756-5.08,3.976-7.08,6.529c-0.908,1.171-0.95,3.315-0.803,4.97c0.322,3.694,1.257,7.096,2.812,10.156
		c11.206-5.19,21.93-10.123,32.443-13.248c-0.434-1.225-0.936-2.448-1.566-3.666c-1.19-2.303-2.781-4.406-4.408-6.926
		c2.658,1.085,4.965,2.562,7.045,4.226c-0.138-0.971-0.201-1.941-0.138-2.896c0.516-8.44,5.75-13.105,17.083-15.399
		c-0.693-9.805-1.379-19.576-2.088-29.563c12.174,3.899,19.466,12.239,20.624,25.984c5.4-2.417,10.447-3.484,14.106,1.815
		c2.485,3.601,1.592,7.099-0.366,9.407c-3.236-1.587-6.275-4.364-8.394-3.79c-2.777,0.753-5.08,3.976-7.078,6.526
		c-0.908,1.172-0.95,3.318-0.803,4.971c0.21,2.429,0.707,4.714,1.444,6.872c11.168,1.116,22.208,3.055,33.185,5.396
		c3.078-6.317,2.322-12.729-0.94-19.025c-1.19-2.303-2.781-4.406-4.408-6.924c6.877,2.81,11.877,7.857,14.473,13.635
		c-0.009-1.439,0.1-2.858,0.485-4.186c2.319-8.125,8.436-11.556,20-11.355c1.436-9.727,2.863-19.413,4.327-29.321
		c11.044,6.434,16.372,16.144,14.547,29.813c5.792-1.199,10.949-1.153,13.385,4.807c1.655,4.053,0.03,7.274-2.385,9.103
		c-2.814-2.245-5.185-5.61-7.378-5.505c-2.877,0.14-5.815,2.791-8.319,4.856c-1.139,0.945-1.645,3.033-1.85,4.679
		c-1.018,7.766,0.807,14.872,6.074,20.74c5.818,1.436,11.619,2.905,17.411,4.415c2.343-0.868,4.569-2.235,6.466-4.237
		c5.509-5.82,6.403-12.8,4.406-20.27c-0.667-2.504-1.769-4.898-2.81-7.708C287.898,193.057,291.496,207.252,284.902,217.312z
		 M30.124,233.177c-0.019-0.056-0.047-0.1-0.068-0.156c-1.743-4.632-3.22-9.439-5.582-13.749c-2.947-5.386-7.722-6.492-11.948-3.561
		c-4.474,3.097-5.652,9.759-1.242,13.416c1.916,1.587,4.268,2.656,6.686,3.598C22.11,233.126,26.157,233.254,30.124,233.177z
		 M213.168,203.892c5.706,1.313,11.407,2.686,17.103,4.039c3.685,0.875,7.355,1.773,11.04,2.663
		c-0.831-2.539-1.438-5.206-1.839-7.988c-0.707-4.893-1.113-9.906-2.49-14.626c-1.722-5.895-6.146-8.001-10.902-6.051
		c-5.031,2.063-7.621,8.31-4.095,12.832c2.9,3.727,7.703,5.983,11.527,8.779c-3.775,3.484-8.358,4.214-12.986,1.419
		c-2.779-1.688-4.999-4.424-6.49-7.533C214.109,199.596,213.808,201.761,213.168,203.892z M145.792,196.025
		c3.727-0.562,7.441-0.845,11.154-0.721c2.175,0.077,4.333,0.233,6.499,0.382c-1.095-3.001-2.236-5.979-3.752-8.746
		c-2.947-5.386-7.722-6.489-11.948-3.561C143.559,186.28,142.322,192.275,145.792,196.025z M77.231,209.196
		c3.643,3.017,8.818,4.182,13.151,6.09c-1.031,1.475-2.235,2.623-3.58,3.444c3.288-1.438,6.525-2.896,9.722-4.368
		c-0.173-0.425-0.359-0.835-0.521-1.27c-1.746-4.632-3.223-9.439-5.582-13.75c-2.95-5.386-7.724-6.492-11.948-3.561
		C74.006,198.884,72.825,205.541,77.231,209.196z M78.005,219.463c-1.167-0.397-2.271-1.003-3.334-1.692
		c1.078,1.557,1.934,3.206,2.604,4.912c2.422-0.952,4.826-1.93,7.192-2.945C82.516,220.299,80.353,220.257,78.005,219.463z
		 M79.965,320.053c-0.301,3.201-0.593,6.422-0.506,9.623c0.079,3.272,1.547,6.04,4.296,8.121c-3.533-3.883-3.79-8.503-3.083-13.381
		c0.43-2.959,0.999-5.94,0.976-8.904c-0.082-9.517-7.026-17.133-15.905-17.749c-10.2-0.709-18.036,9.559-14.076,18.565
		c1.933,4.388,5.507,6.702,10.338,6.805c4.149,0.084,6.973-2.096,8.655-5.73c2.329-5.022-1.05-10.697-6.399-10.922
		c-2.709-0.111-5.171,1.587-5.993,4.136c-0.711,2.212-0.004,4.471,1.807,5.722c1.848,1.278,4.415,0.999,5.609-0.606
		c1.172-1.568,0.929-3.137-0.739-4.499c1.19,1.278,1.381,2.842,0.138,3.883c-0.817,0.7-2.656,1.189-3.417,0.737
		c-1.104-0.663-2.156-2.198-2.322-3.481c-0.317-2.344,1.93-4.317,4.347-4.369c2.891-0.064,5.612,2.301,5.796,5.152
		c0.191,3.034-1.055,5.424-3.694,6.894c-3.087,1.713-6.121,1.125-8.851-0.892c-5.519-4.078-4.807-12.899,1.325-17.081
		c6.462-4.396,15.561-1.671,19.751,5.918C80.113,311.792,80.367,315.848,79.965,320.053z M108.157,323.035
		c0.037,2.086-1.323,3.812-3.375,3.957c-1.008,0.07-2.056-0.34-3.312-0.578c1.625,1.685,3.33,1.802,5.167,0.947
		c1.867-0.868,2.695-2.455,2.746-4.434c0.086-3.244-2.562-6.002-5.873-6.217c-4.712-0.308-8.65,3.846-8.235,8.686
		c0.674,7.804,9.598,11.64,16.417,7.047c7.633-5.129,7.47-16.796-0.343-22.378c-5.453-3.893-11.304-4.149-17.187-1.209
		c-6.471,3.239-10.097,8.606-10.438,15.9c-0.539,11.547,8.48,21.637,20.67,23.014c2.928,0.331,5.964,0.005,8.928-0.233
		c2.746-0.219,5.463-0.84,8.209-1.097c7.188-0.69,10.597,0.519,15.847,5.428c-1.586-3.234-5.309-6.123-9.649-6.585
		c-3.699-0.378-7.479-0.047-11.225,0.056c-3.594,0.103-7.227,0.752-10.771,0.42c-10.606-1.008-18.51-9.03-19.037-18.864
		c-0.588-10.949,10.377-19.48,20.164-15.7c6.973,2.698,9.892,11.565,5.5,17.067c-2.303,2.895-5.444,4.271-9.185,3.491
		c-3.078-0.63-4.898-2.744-5.682-5.712c-1.108-4.229,2.459-8.312,6.609-7.659C106.337,318.756,108.118,320.79,108.157,323.035z
		 M96.849,350.641c-3.202-2.604-6.896-3.313-10.795-1.782c-3.694,1.456-5.682,4.321-6.065,8.241
		c-0.492,5.05,3.995,9.344,8.952,8.635c2.877-0.401,5.148-2.819,5.414-5.74c0.236-2.567-1.164-4.747-3.561-5.531
		c-2.628-0.863-5.365,0.546-5.538,3.15c-0.077,1.106,0.525,2.633,1.351,3.332c0.732,0.616,2.214,0.364,3.36,0.5
		c0.014-0.205,0.032-0.406,0.054-0.607c-2.558,0.295-3.89-0.434-4.072-2.217c-0.163-1.624,1.123-3.159,2.8-3.337
		c2.035-0.21,4.149,1.526,4.354,3.57c0.21,2.119-1.158,4.331-3.165,5.125c-2.275,0.9-5.43-0.103-6.968-2.231
		c-1.715-2.37-1.641-4.9-0.43-7.406c1.375-2.833,3.699-4.452,6.887-4.653c5.5-0.35,10.352,3.921,10.958,9.903
		c0.233,2.334-0.187,4.732-0.336,7.1c-0.147,2.422-0.329,4.839,0.674,6.389c0.191-2.8,0.273-6.123,0.674-9.409
		C102.024,358.537,100.988,354.011,96.849,350.641z M147.069,402.343c-5.11-5.144-5.612-11.378-4.513-18.02
		c0.446-2.726,0.898-5.446,1.19-8.19c1.396-12.984-6.837-24.53-18.848-26.51c-12.837-2.104-23.896,8.85-21.429,21.212
		c1.988,9.965,13.896,15.248,21.807,9.601c3.694-2.651,5.458-6.395,4.975-10.977c-0.42-3.963-2.721-6.595-6.361-8.028
		c-5.731-2.259-11.696,2.017-11.068,7.869c0.257,2.445,1.634,4.116,3.804,5.078c1.974,0.872,3.909,0.672,5.591-0.78
		c2.289-1.965,2.151-4.867-0.73-7.103c1.843,2.207,2.184,4.088,0.488,5.945c-1.295,1.41-3.528,1.592-5.286,0.5
		c-1.96-1.214-2.744-3.481-2.028-5.839c0.826-2.688,3.328-4.443,6.114-4.275c3.368,0.206,6.35,2.768,6.987,6.012
		c1.036,5.26-3.087,10.562-8.527,10.981c-8.52,0.653-14.72-7.603-12.163-16.199c3.188-10.697,15.695-14.79,25.233-8.163
		c7.299,5.064,10.022,12.321,9.467,20.96c-0.262,4.131-0.913,8.247-1.06,12.377C140.502,394.306,142.418,399.001,147.069,402.343z
		 M221.464,322.078c0,0-17.606-38.494-51.539-50.031c-33.927-11.537-71.346,8.232-71.346,8.232s17.595,38.494,51.527,50.031
		C184.039,341.848,221.464,322.078,221.464,322.078z M233.043,233.332c0.177-0.78,0.159-1.578,0.24-2.366
		c-2.098,1.806-3.414,3.934-5.979,5.01c-15.882,6.613-40.025,9.304-60.653,1.605c-1.333-0.497-2.66-0.999-4.457-1.673
		c7.745,9.645,21.585,13.581,40.181,11.852c-17.338,4.242-34.452,4.238-50.533-1.988c-8.373-3.25-15.896-7.264-23.996-10.781
		c-17.856-7.761-39.869-7.862-57.872-0.301c-13.959,5.859-21.233,14.293-25.592,23.833c-0.201,0.429-0.119,0.908-0.187,1.447
		c0.497-0.098,0.642-0.098,0.693-0.143c0.684-0.534,1.344-1.08,2.009-1.619c6.375-5.244,13.548-10.041,23.093-13.271
		c20.089-6.797,40.386-8.188,60.707-0.282c5.458,2.112,10.83,4.319,16.188,6.527c20.895,8.637,42.379,9.812,64.364,1.601
		C223.289,248.28,231.09,241.924,233.043,233.332z M252.715,271.114c-2.868-1.587-5.708-1.346-8.482,0.217
		c-3.36,1.897-5.248,4.984-6.606,8.438c-3.561,9.08-2.399,18.022,1.144,26.782c1.51,3.743,3.349,7.346,5.185,11.313
		c-3.794-2.702-7.514-4.85-12.268-2.04c13.147,2.408,18.456,12.088,22.57,22.888c0.737,1.941,1.304,3.985,1.692,6.029
		c0.732,3.884-1.104,6.973-4.392,7.767c-3.325,0.798-6.704-1.195-7.862-4.751c-0.443-1.335-0.779-2.786,1.118-3.696
		c0.109,0.168,0.292,0.321,0.301,0.504c0.159,1.456,1.104,2.445,2.375,2.119c0.812-0.215,1.636-1.489,1.893-2.437
		c0.378-1.363-0.333-2.483-1.843-2.885c-2.831-0.746-5.96,1.438-6.294,4.48c-0.646,5.75,3.769,13.493,11.621,12.597
		c2.901-0.326,4.756-1.783,5.783-4.849c1.731-5.181,0.871-10.245-1.27-14.981c-3.073-6.805-6.487-13.46-9.959-20.088
		c-3.696-7.037-6.788-14.271-7.601-22.243c-0.648-6.31-0.357-12.557,3.041-18.22c1.5-2.509,3.584-4.448,6.648-4.215
		c1.872,0.133,3.685,1.123,5.533,1.734C255.539,274.105,254.736,272.229,252.715,271.114z M252.685,235.065
		c-1.475-4-1.615-8.31-0.969-12.597c0.065-0.434,0.009-0.894,0.009-1.86c-2.142,4.742-2.083,9.187-1.195,13.63
		c0.593,2.959,1.587,5.85,2.427,8.76c1.148,3.986,1.022,4.287-2.551,6.079c1.792,1.505,2.947,1.272,4.684-1.19
		c2.049,4.637,4.161,9.052,5.916,13.607c0.564,1.477,0.429,3.355,0.163,4.975c-0.322,2.044-1.706,2.441-3.117,0.94
		c-1.51-1.619-2.766-3.475-4.173-5.194c-3.367-4.114-6.566-8.387-10.226-12.221c-1.53-1.591-3.958-2.609-6.16-3.192
		c-3.447-0.903-6.826,2.156-6.032,5.276c0.301,1.195,1.386,2.476,2.471,3.106c1.423,0.842,2.987,0.245,4.359-1.064
		c-0.716-0.269-1.335-0.411-1.888-0.698c-1.286-0.67-1.75-1.937-1.162-3.06c0.378-0.702,1.788-1.442,2.49-1.257
		c1.573,0.413,3.414,1.043,4.408,2.219c2.632,3.111,4.989,6.48,7.234,9.896c2.107,3.211,3.895,6.616,5.888,9.892
		c0.455,0.733,1.09,1.391,1.759,1.941c2.189,1.783,4.798,1.309,6.088-1.227c0.66-1.295,0.938-2.782,1.605-4.838
		c0.821,3.041,1.668,5.54,2.156,8.104c0.77,3.995,1.171,8.062-0.521,11.929c-0.611,1.396-1.521,2.711-2.548,3.841
		c-1.605,1.773-3.16,1.446-4.25-0.682c-0.138-0.271-0.252-0.556-0.415-0.915c-1.265,2.054-1.237,3.696-0.042,4.858
		c1.51,1.461,3.211,1.293,4.511,0c1.591-1.582,3.206-3.313,4.177-5.302c2.64-5.381,1.951-11.023,0.63-16.626
		c-1.715-7.229-5.294-13.663-8.51-20.276C257.24,246.446,254.804,240.801,252.685,235.065z"/>
</g>
</svg>